# xmcd
# 
# Track frame offsets:
#     150
#     13778
#     27793
#     38425
#     51825
#     67043
#     78473
#     91778
#     103370
#     117040
# 
# Disc length: 1756
# 
# Revision: 4
# Processed by: cddbd v1.5.2PL0 Copyright (c) Steve Scherf et al.
# Submitted via: fre:ac v1.0.31
# 
DISCID=7606da0a
DTITLE=Ricky Van Shelton - Loving Proof
DYEAR=1988
DGENRE=Country
TTITLE0=Swimming Upstream
TTITLE1=I'll Leave This World Loving You
TTITLE2=From A Jack To A King
TTITLE3=Let Me Live With Love (And Die With You)
TTITLE4=Living Proof
TTITLE5=Hole In My Pocket
TTITLE6=The Picture
TTITLE7=Somebody's Back In Town
TTITLE8=Don't Send Me No Angels
TTITLE9=He's Got You
EXTD=\nYEAR: 1988  ID3G:   2
EXTT0=
EXTT1=
EXTT2=
EXTT3=
EXTT4=
EXTT5=
EXTT6=
EXTT7=
EXTT8=
EXTT9=
PLAYORDER=
